<svg xmlns="http://www.w3.org/2000/svg" width="1360" height="860" viewBox="0 0 1360 860" role="img" aria-labelledby="title desc">
  <title id="title">UI Story 02 - Desktop settings modal</title>
  <desc id="desc">Compact settings modal with minimal copy, help behind a tooltip icon, and open emoji picker trigger.</desc>

  <rect width="1360" height="860" fill="#e8efe8"/>
  <rect x="48" y="124" width="1264" height="680" rx="16" fill="#ffffff" stroke="#d7ddd9"/>
  <text x="88" y="180" font-family="Arial, sans-serif" font-size="34" fill="#1f2a2e" font-weight="700">24:13</text>

  <rect width="1360" height="860" fill="#162127" opacity="0.58"/>

  <rect x="310" y="106" width="740" height="648" rx="20" fill="#ffffff" stroke="#d7ddd9"/>
  <text x="358" y="164" font-family="Arial, sans-serif" font-size="33" fill="#1f2a2e" font-weight="700">Room Settings</text>

  <rect x="848" y="126" width="36" height="36" rx="18" fill="#ffffff" stroke="#d7ddd9"/>
  <text x="860" y="151" font-family="Arial, sans-serif" font-size="21" fill="#516067" font-weight="700">?</text>

  <rect x="958" y="132" width="54" height="42" rx="9" fill="#ffffff" stroke="#d7ddd9"/>
  <text x="977" y="161" font-family="Arial, sans-serif" font-size="25" fill="#1f2a2e" font-weight="700">×</text>

  <rect x="358" y="226" width="644" height="64" rx="12" fill="#f4efe4" stroke="#d7ddd9"/>
  <text x="388" y="266" font-family="Arial, sans-serif" font-size="21" fill="#1f2a2e" font-weight="700">Theme</text>
  <text x="556" y="266" font-family="Arial, sans-serif" font-size="21" fill="#516067">Timer</text>
  <text x="696" y="266" font-family="Arial, sans-serif" font-size="21" fill="#516067">Sound</text>
  <text x="830" y="266" font-family="Arial, sans-serif" font-size="21" fill="#516067">Advanced</text>

  <text x="358" y="340" font-family="Arial, sans-serif" font-size="18" fill="#516067">Name</text>
  <rect x="358" y="352" width="420" height="50" rx="10" fill="#ffffff" stroke="#d7ddd9"/>
  <text x="380" y="384" font-family="Arial, sans-serif" font-size="19" fill="#1f2a2e">Deep Focus Board</text>

  <text x="358" y="440" font-family="Arial, sans-serif" font-size="18" fill="#516067">Accent</text>
  <rect x="358" y="452" width="90" height="52" rx="10" fill="#0d7c8f"/>
  <rect x="462" y="452" width="90" height="52" rx="10" fill="#2460c8"/>
  <rect x="566" y="452" width="90" height="52" rx="10" fill="#18a16f"/>
  <rect x="670" y="452" width="90" height="52" rx="10" fill="#c57015"/>

  <text x="358" y="548" font-family="Arial, sans-serif" font-size="18" fill="#516067">Emoji</text>
  <rect x="358" y="560" width="300" height="52" rx="10" fill="#ffffff" stroke="#d7ddd9"/>
  <text x="382" y="594" font-family="Arial, sans-serif" font-size="26" fill="#1f2a2e">🚀</text>
  <rect x="676" y="560" width="170" height="52" rx="10" fill="#ffffff" stroke="#d7ddd9"/>
  <text x="704" y="594" font-family="Arial, sans-serif" font-size="19" fill="#1f2a2e">Pick Emoji</text>

  <rect x="358" y="656" width="250" height="52" rx="10" fill="#ffffff" stroke="#d7ddd9"/>
  <text x="384" y="689" font-family="Arial, sans-serif" font-size="19" fill="#1f2a2e">Alert sound: Bell</text>
</svg>
